<svg width="30" height="30" viewBox="0 0 30 30" fill="none" xmlns="http://www.w3.org/2000/svg">
<path fill-rule="evenodd" clip-rule="evenodd" d="M15 26.4C21.296 26.4 26.4 21.296 26.4 15C26.4 8.70395 21.296 3.6 15 3.6C8.70395 3.6 3.6 8.70395 3.6 15C3.6 21.296 8.70395 26.4 15 26.4ZM15 28C22.1797 28 28 22.1797 28 15C28 7.8203 22.1797 2 15 2C7.8203 2 2 7.8203 2 15C2 22.1797 7.8203 28 15 28Z" fill="#E1E2E4"/>
<path fill-rule="evenodd" clip-rule="evenodd" d="M9.43427 12.4343C9.74669 12.1218 10.2532 12.1218 10.5656 12.4343L15 16.8686L19.4343 12.4343C19.7467 12.1218 20.2532 12.1218 20.5656 12.4343C20.8781 12.7467 20.8781 13.2532 20.5656 13.5656L15.5656 18.5656C15.2532 18.8781 14.7467 18.8781 14.4343 18.5656L9.43427 13.5656C9.12185 13.2532 9.12185 12.7467 9.43427 12.4343Z" fill="#B3B3B3"/>
</svg>
