<svg width="14" height="14" viewBox="0 0 14 14" fill="none" xmlns="http://www.w3.org/2000/svg">
<path d="M12.7364 4.97141L9.1064 4.65641L7.68889 1.31891C7.43389 0.711406 6.56389 0.711406 6.30889 1.31891L4.89139 4.66391L1.26889 4.97141C0.608895 5.02391 0.338895 5.84891 0.841395 6.28391L3.59389 8.66891L2.76889 12.2089C2.61889 12.8539 3.31639 13.3639 3.88639 13.0189L6.99889 11.1439L10.1114 13.0264C10.6814 13.3714 11.3789 12.8614 11.2289 12.2164L10.4039 8.66891L13.1564 6.28391C13.6589 5.84891 13.3964 5.02391 12.7364 4.97141ZM6.99889 9.74141V2.76641L8.28139 5.79641L11.5664 6.08141L9.0764 8.24141L9.8264 11.4514L6.99889 9.74141Z" fill="#317EFF"/>
</svg>
